<svg width="24" height="24" viewBox="0 0 24 24" fill="none" xmlns="http://www.w3.org/2000/svg">
<path d="M21.3103 7.545L11.2073 2.09C10.9843 1.97 10.7173 1.97 10.4943 2.09L0.393335 7.545C0.0293351 7.742 -0.106665 8.197 0.0903352 8.562C0.225335 8.812 0.484335 8.955 0.750335 8.955C0.870335 8.955 0.993335 8.925 1.10634 8.865L1.92134 8.425L3.55033 19.938C3.76433 21.153 4.85834 22 6.20833 22H15.4903C16.8423 22 17.9353 21.152 18.1533 19.913L19.7793 8.423L20.5973 8.865C20.9613 9.058 21.4173 8.925 21.6143 8.561C21.8103 8.198 21.6743 7.743 21.3103 7.545ZM16.6723 19.678C16.5653 20.284 15.9693 20.5 15.4923 20.5H6.21034C5.73034 20.5 5.13534 20.284 5.03234 19.702L3.33034 7.665L10.8503 3.603L18.3723 7.663L16.6723 19.678Z" fill="white"/>
<path d="M7.07034 12.159C7.07034 14.243 8.76534 15.939 10.8503 15.939C12.9353 15.939 14.6303 14.243 14.6303 12.159C14.6303 10.075 12.9353 8.37903 10.8503 8.37903C8.76534 8.37903 7.07034 10.075 7.07034 12.159ZM13.1303 12.159C13.1303 13.417 12.1083 14.439 10.8503 14.439C9.59234 14.439 8.57034 13.417 8.57034 12.159C8.57034 10.901 9.59234 9.87903 10.8503 9.87903C12.1083 9.87903 13.1303 10.901 13.1303 12.159Z" fill="white"/>
</svg>
