<svg width="24" height="24" viewBox="0 0 24 24" fill="none" xmlns="http://www.w3.org/2000/svg">
<path d="M14.046 2.24199L9.89799 2.23199H9.89599C5.52199 2.23199 2.09599 5.65899 2.09599 10.034C2.09599 14.132 5.28199 17.24 9.56099 17.404V21.232C9.56099 21.34 9.60499 21.518 9.68099 21.635C9.82299 21.86 10.065 21.982 10.313 21.982C10.451 21.982 10.59 21.944 10.715 21.864C10.979 21.696 17.188 17.724 18.803 16.358C20.705 14.748 21.843 12.388 21.846 10.046V10.029C21.84 5.66199 18.416 2.24199 14.046 2.24099V2.24199ZM17.833 15.214C16.699 16.174 12.971 18.619 11.061 19.857V16.67C11.061 16.256 10.726 15.92 10.311 15.92H9.91499C6.25499 15.92 3.59699 13.444 3.59699 10.034C3.59699 6.49999 6.36499 3.73199 9.89699 3.73199L14.044 3.74199H14.046C17.578 3.74199 20.346 6.50799 20.348 10.038C20.345 11.948 19.406 13.882 17.834 15.214H17.833Z" fill="white"/>
</svg>
